# xmcd
#
# Track frame offsets: 
#        150
#        18250
#        32790
#        54118
#        69047
#        92709
#        112446
#        136925
#        157028
#        173116
#        195629
#
# Disc length: 3077 seconds
#
# Revision: 1
# Processed by: cddbd v1.5.1PL0 Copyright (c) Steve Scherf et al.
# Submitted via: ExactAudioCopy v0.95a5
#
DISCID=8c0c030b
DTITLE=The Blackwater Voodoo Club - The Blackwater Voodoo Club
DYEAR=2003
DGENRE=Blues Rock
TTITLE0=I'll Keep Runnin'
TTITLE1=Into The Breech
TTITLE2=Salt On The Wound
TTITLE3=Completely
TTITLE4=Real Good
TTITLE5=Dreamland
TTITLE6=Take A Ride
TTITLE7=Birds
TTITLE8=Every Night
TTITLE9=And The World Had Moved On
TTITLE10=Sweet Love Vibrations 
EXTD=
EXTT0=
EXTT1=
EXTT2=
EXTT3=
EXTT4=
EXTT5=
EXTT6=
EXTT7=
EXTT8=
EXTT9=
EXTT10=
PLAYORDER=
